HIERARCHY
ROOT Hips
{
  OFFSET 3.13124 94.3669 -3.18751
  CHANNELS  6 Xposition Yposition Zposition Zrotation Xrotation Yrotation
  JOINT LeftUpLeg
  {
    OFFSET 8.64259 1.95398 -2.38835
    CHANNELS 3 Zrotation Xrotation Yrotation
    JOINT LeftLeg
    {
      OFFSET 43.7702 0 0
      CHANNELS 3 Zrotation Xrotation Yrotation
      JOINT LeftFoot
      {
        OFFSET 40.6238 0 0
        CHANNELS 3 Zrotation Xrotation Yrotation
        JOINT LeftToeBase
        {
          OFFSET 12.7242 0 0
          CHANNELS 3 Zrotation Xrotation Yrotation
          End Site
          {
            OFFSET 0 0 0
          }
        }
      }
    }
  }
  JOINT RightUpLeg
  {
    OFFSET -8.2249 1.95398 -2.59336
    CHANNELS 3 Zrotation Xrotation Yrotation
    JOINT RightLeg
    {
      OFFSET 43.5653 0 0
      CHANNELS 3 Zrotation Xrotation Yrotation
      JOINT RightFoot
      {
        OFFSET 40.6238 0 0
        CHANNELS 3 Zrotation Xrotation Yrotation
        JOINT RightToeBase
        {
          OFFSET 12.7242 0 0
          CHANNELS 3 Zrotation Xrotation Yrotation
          End Site
          {
            OFFSET 0 0 0
          }
        }
      }
    }
  }
  JOINT Spine
  {
    OFFSET 0.165834 0.87714 6.61349
    CHANNELS 3 Zrotation Xrotation Yrotation
    JOINT Spine1
    {
      OFFSET 7.38962 1.71661e-005 0
      CHANNELS 3 Zrotation Xrotation Yrotation
      JOINT Spine2
      {
        OFFSET 11.9445 1.14441e-005 0
        CHANNELS 3 Zrotation Xrotation Yrotation
        JOINT Spine3
        {
          OFFSET 14.7254 4.19617e-005 0
          CHANNELS 3 Zrotation Xrotation Yrotation
          JOINT Spine4
          {
            OFFSET 10.9679 0 0
            CHANNELS 3 Zrotation Xrotation Yrotation
            JOINT RightShoulder
            {
              OFFSET 2.46616 -1.6653 3.69651
              CHANNELS 3 Zrotation Xrotation Yrotation
              JOINT RightArm
              {
                OFFSET 13.0012 0 0
                CHANNELS 3 Zrotation Xrotation Yrotation
                JOINT RightForeArm
                {
                  OFFSET 28.7848 1.52588e-005 0
                  CHANNELS 3 Zrotation Xrotation Yrotation
                  JOINT RightHand
                  {
                    OFFSET 26.5688 1.52588e-005 0
                    CHANNELS 3 Zrotation Xrotation Yrotation
                    End Site
                    {
                      OFFSET 0 0 0
                    }
                  }
                }
              }
            }
            JOINT LeftShoulder
            {
              OFFSET 2.38034 -1.29275 -3.75231
              CHANNELS 3 Zrotation Xrotation Yrotation
              JOINT LeftArm
              {
                OFFSET 16.3182 6.10352e-005 0
                CHANNELS 3 Zrotation Xrotation Yrotation
                JOINT LeftForeArm
                {
                  OFFSET 27.0901 0 0
                  CHANNELS 3 Zrotation Xrotation Yrotation
                  JOINT LeftHand
                  {
                    OFFSET 24.5451 1.52588e-005 0
                    CHANNELS 3 Zrotation Xrotation Yrotation
                    End Site
                    {
                      OFFSET 0 0 0
                    }
                  }
                }
              }
            }
            JOINT Neck
            {
              OFFSET 5.0226 -0.0266342 0
              CHANNELS 3 Zrotation Xrotation Yrotation
              JOINT Head
              {
                OFFSET 6.69363 2.86102e-005 0
                CHANNELS 3 Zrotation Xrotation Yrotation
                End Site
                {
                  OFFSET 0 0 0
                }
              }
            }
          }
        }
      }
    }
  }
}
MOTION
Frames:	16
Frame Time:	0.0333333
-39.0955 77.8507 -93.3767 82.4227 -8.56406 80.4669 -171.436 36.333 79.2913 -78.4065 -23.2663 -14.2171 95.4232 -3.06254 0.0359876 28.7808 5.55632e-006 5.01685e-006 -160.159 31.9591 31.5672 -63.7416 -4.07697 -1.03634 30.9854 4.90925 6.19138 28.7808 1.39294e-005 1.78738e-005 -0.398618 7.27254 -89.4738 12.2932 -0.730016 -3.66841 0.617397 -0.890698 -3.63279 -21.8763 0.405388 -3.71825 -1.8637 0.405384 -3.71826 99.0287 -53.1426 -86.679 32.8266 0.362414 -38.1541 -1.27138 1.98986 -46.1208 17.8652 -5.14356 -35.3717 -92.7447 -41.2046 72.144 -41.6154 -4.50773 4.97446 21.2237 33.8562 -34.075 4.20101 -0.567938 -12.6645 65.2387 -2.98781 -7.89523 -16.5989 -0.625059 25.373 
-38.6308 78.239 -93.7291 83.7597 -8.11423 81.9741 -171.093 34.2345 80.7134 -77.6194 -22.3492 -14.232 95.8701 -2.2221 0.25756 28.7808 5.55632e-006 5.01685e-006 -157.04 34.3572 34.8998 -71.6562 1.17833 -0.924435 42.4709 1.12657 1.65688 28.7808 1.39294e-005 1.78738e-005 -0.65814 7.71132 -89.504 11.3813 -1.27546 -3.84125 -0.29452 -1.44316 -3.78151 -22.7842 -0.0631059 -4.04667 -2.77161 -0.0630778 -4.04668 102.203 -56.2372 -81.918 30.5504 4.75158 -41.8244 -6.78169 -5.48942 -35.6459 8.79643 -1.97258 -29.133 -94.7932 -35.4872 66.6496 -44.7807 -2.47886 -0.235052 14.9857 29.4402 -27.0471 6.84326 -0.992431 -15.4872 64.5032 -6.58432 -12.5969 -13.7314 -0.153402 28.3323 
-37.7555 78.7901 -93.7617 85.3898 -6.92929 83.4274 -170.759 31.4819 82.3215 -76.4735 -21.1973 -14.076 96.0375 -1.63615 0.396844 28.7808 5.55632e-006 5.01685e-006 -157.021 36.9762 41.2764 -77.1906 17.7347 -0.0409654 53.4079 -2.6087 -1.44973 28.7808 1.39294e-005 1.78738e-005 -0.845496 8.10573 -89.5139 10.5601 -1.72827 -4.09953 -1.11586 -1.90689 -4.01963 -23.6003 -0.417665 -4.42911 -3.58765 -0.417677 -4.42915 106.154 -58.4837 -76.3591 28.1088 8.28775 -54.489 -3.78619 -12.3564 -4.8987 -4.09478 1.05186 -40.2706 -96.9945 -31.5126 61.0521 -44.883 -2.10347 -6.265 10.3886 26.1598 -20.3202 6.13402 -1.16519 -18.6696 63.2094 -8.71814 -15.1707 -11.0506 0.157587 30.2634 
-36.5334 79.5945 -93.6254 86.0643 -6.30786 85.1658 -170.07 29.3874 84.6648 -75.1278 -19.7369 -14.0718 95.4407 -1.02722 0.510194 28.7808 5.55632e-006 5.01685e-006 -158.688 41.2913 48.5501 -79.754 24.9869 0.417915 59.9742 -2.7652 -1.53007 28.7808 1.39294e-005 1.78738e-005 -0.977588 8.25828 -89.6469 10.23 -2.04669 -4.44444 -1.44664 -2.24012 -4.35105 -23.9228 -0.618198 -4.84791 -3.91011 -0.618177 -4.84792 109.199 -59.2213 -72.17 24.3966 12.4635 -48.6075 -3.36613 -2.21448 -4.9008 5.81049 -2.16045 -42.6655 -98.8364 -29.8666 56.8784 -42.9124 -3.86204 -14.4392 5.08264 31.1853 -7.94406 7.11344 -1.63068 -22.7307 60.2472 -9.51746 -14.9103 -8.80372 -0.461053 29.1862 
-34.9402 80.4749 -93.451 86.1197 -6.66144 86.7475 -169.357 27.3387 87.0727 -73.3307 -18.4539 -14.3229 95.1164 -1.01662 0.48354 28.7808 5.55632e-006 5.01685e-006 -161.601 46.8717 56.7175 -80.4778 26.5003 0.541145 60.7415 2.91584 1.90636 28.7808 1.39294e-005 1.78738e-005 -1.24073 8.354 -89.4565 10.0206 -2.3499 -4.04994 -1.65413 -2.52575 -3.94279 -24.144 -1.02556 -4.56787 -4.13134 -1.02558 -4.56789 111.984 -61.7093 -68.6801 22.4632 14.4462 -42.5757 -3.07505 4.8013 -4.94512 7.99936 -2.65218 -38.4497 -98.1467 -25.8552 55.8375 -38.0054 -4.63604 -11.7304 12.2261 30.7108 -21.4228 -10.441 0.882297 -18.2098 54.842 -13.9875 -25.6919 -7.45811 1.39063 35.3323 
-33.0541 81.3215 -93.3092 86.4564 -6.8497 87.387 -168.885 24.6558 88.5021 -71.3695 -17.7583 -14.8715 94.4158 -1.11502 0.421777 28.7808 5.55632e-006 5.01685e-006 -165.899 50.8174 64.9923 -79.0667 27.4245 0.672811 60.6899 7.59834 4.73153 28.7808 1.39294e-005 1.78738e-005 -1.44751 8.34711 -89.3624 10.0203 -2.69221 -3.70454 -1.65297 -2.85254 -3.58262 -24.1527 -1.45558 -4.34129 -4.14007 -1.45561 -4.34132 113 -62.1269 -67.3804 19.8997 16.5199 -34.752 -3.05764 5.21485 -4.94888 5.46915 -1.32161 -28.8288 -98.2652 -24.8127 54.9888 -36.2955 -5.04227 -14.3923 12.7945 30.6095 -22.4903 -11.7019 0.570749 -12.9277 49.8067 -15.0387 -28.3911 -6.69201 1.04496 34.9956 
-30.8414 82.1555 -93.1543 86.8169 -6.26336 87.1927 -168.881 21.5959 88.8824 -68.9539 -17.2742 -15.1184 93.2345 -1.39794 0.29322 28.7808 5.55632e-006 5.01685e-006 -169.252 53.4365 70.755 -76.4595 27.85 0.791375 60.7423 8.25809 5.11814 28.7808 1.39294e-005 1.78738e-005 -1.69992 8.23032 -89.4122 10.235 -3.18022 -3.47184 -1.43629 -3.32988 -3.32861 -23.9489 -1.99087 -4.26561 -3.93622 -1.99087 -4.26563 113.634 -61.2953 -66.3897 18.0054 17.6763 -27.017 -3.02892 5.89494 -4.95537 -2.06403 0.122007 -18.67 -99.0456 -25.8782 54.1756 -36.3217 -5.84157 -24.7325 3.39985 36.9696 -4.47094 0.772708 -0.388143 -15.7386 47.0533 -14.1089 -25.0858 -7.41716 -0.793526 30.609 
-28.3476 83.1463 -92.8697 87.7932 -5.59126 86.6773 -168.947 17.3731 89.0675 -65.7853 -16.9653 -15.439 91.6316 -1.40575 0.220733 28.7808 5.55632e-006 5.01685e-006 -172.007 53.8505 74.7396 -71.6629 30.2938 1.10619 61.3814 8.63904 5.24335 28.7808 1.39294e-005 1.78738e-005 -1.97728 8.2021 -89.441 10.2814 -3.74422 -3.03273 -1.38757 -3.874 -2.8649 -23.9186 -2.66041 -4.0238 -3.90598 -2.66043 -4.02382 114.44 -60.8072 -65.2111 15.6696 18.7346 -19.5405 -2.98291 6.97854 -4.96637 -4.529 0.169458 -10.7507 -98.9918 -25.7996 54.2273 -37.1336 -4.75451 -27.11 3.36351 36.2305 -4.43396 9.41326 -1.01946 -13.2724 44.6563 -13.7577 -25.1038 -7.61238 -1.05395 30.2183 
-25.9105 84.1505 -92.3526 87.0972 -4.47723 87.209 -169.282 15.2156 89.7947 -62.4537 -17.4602 -14.8799 90.2224 -1.90143 0.0319224 28.7808 5.55632e-006 5.01685e-006 -173.319 55.7301 76.7841 -67.0019 27.6849 1.0309 58.5709 10.0829 6.52879 28.7808 1.39294e-005 1.78738e-005 -2.18578 8.07045 -89.7567 10.5459 -4.32606 -2.8987 -1.12079 -4.44935 -2.70679 -23.666 -3.25583 -4.05898 -3.65331 -3.25585 -4.059 116.581 -60.2025 -62.181 14.5135 19.0647 -14.628 -2.84416 10.1936 -5.00473 -8.83585 -0.0877827 -4.27802 -98.0683 -24.7468 55.341 -38.7447 -2.89227 -30.5449 3.03911 28.7111 -4.10287 15.977 -1.90456 -15.5802 46.4855 -14.3199 -25.4405 -11.6283 -2.07249 31.2243 
-23.2363 85.4008 -91.5772 85.8553 -2.63871 88.0155 -169.686 13.0339 90.6395 -57.3633 -17.5238 -13.2327 88.7619 -2.46659 -0.201094 28.7808 5.55632e-006 5.01685e-006 -174.208 56.4336 77.785 -60.696 25.6774 1.02098 53.5522 10.9657 7.92479 28.7808 1.39294e-005 1.78738e-005 -2.40394 7.8123 -90.2202 11.0628 -4.94714 -3.03265 -0.601736 -5.07577 -2.81172 -23.1579 -3.80778 -4.37925 -3.14523 -3.8078 -4.37927 119.483 -59.1091 -57.9593 13.6756 19.3173 -12.3221 -2.32141 21.4529 -5.20895 -16.4109 -0.580002 -1.10116 -98.0007 -24.7203 55.445 -40.1162 -0.921255 -34.2836 2.63386 16.1106 -3.68624 16.8387 -2.94275 -21.0809 47.1755 -14.1857 -25.0357 -13.9204 -2.77022 32.7369 
-20.0118 86.6676 -90.7128 84.9417 0.0785974 88.7782 -170.316 9.9316 91.1171 -50.8332 -16.6621 -10.1032 86.7633 -3.02692 -0.475428 28.7808 5.55632e-006 5.01685e-006 -173.495 57.243 76.1079 -57.5824 23.3877 0.912303 43.1161 12.1706 10.7363 28.7808 1.39294e-005 1.78738e-005 -2.68881 7.56377 -90.651 11.5655 -5.67506 -3.09149 -0.0961733 -5.80559 -2.83814 -22.6698 -4.48424 -4.65545 -2.65716 -4.48427 -4.65548 124.781 -58.5441 -50.5712 11.3051 20.2031 -10.8466 -1.72546 32.2317 -5.53815 -16.4568 -0.22658 -3.68844 -98.1711 -24.2324 54.8151 -42.0598 1.41675 -37.1649 2.41985 7.46074 -3.4621 18.759 -4.43272 -27.3692 48.1378 -14.9206 -26.2397 -16.0264 -3.48732 35.6821 
-16.2598 88.3361 -89.716 84.7804 2.8687 89.5125 -171.119 5.40466 91.5022 -42.6925 -14.5483 -5.57711 82.0302 -4.1881 -1.15754 28.7808 5.55632e-006 5.01685e-006 -175.035 54.1045 77.6577 -52.778 23.7584 1.03297 39.4504 10.9711 10.4762 28.7808 1.39294e-005 1.78738e-005 -2.90429 7.33123 -91.1266 12.0491 -6.33455 -3.14824 0.390323 -6.46694 -2.86693 -22.2005 -5.0971 -4.89892 -2.18787 -5.09712 -4.89896 129.551 -57.8886 -43.89 7.67134 21.4764 -8.9219 -1.07169 41.5513 -5.98243 -10.03 0.135978 -7.03298 -98.8077 -24.2987 53.6352 -43.1475 2.81716 -38.7115 2.40813 6.93868 -3.44977 15.7043 -4.70008 -32.809 48.4722 -15.4811 -27.2191 -17.736 -4.29994 38.6421 
-11.8803 90.2017 -88.4492 85.0406 4.40294 89.3641 -171.112 0.692288 92.0149 -35.3978 -11.1684 -1.77358 72.9642 -5.27559 -2.29073 28.7808 5.55632e-006 5.01685e-006 -176.436 49.8389 79.2107 -48.905 20.5785 0.871084 30.1574 13.6522 15.3355 28.7808 1.39294e-005 1.78738e-005 -3.07904 7.05713 -91.2752 12.619 -6.71923 -2.95752 0.962923 -6.84047 -2.65778 -21.6477 -5.52216 -4.84867 -1.63507 -5.52217 -4.84869 133.502 -57.0417 -38.2437 4.53677 22.5533 -7.87613 -0.31632 49.664 -6.56786 -8.3711 0.197462 -8.42347 -98.9631 -23.7514 52.9753 -44.8245 4.1633 -38.7657 2.67746 17.6894 -3.73039 15.8474 -5.3442 -36.2915 46.8442 -16.1991 -28.7634 -18.5485 -5.19808 41.251 
-7.12374 92.0829 -86.84 85.0402 4.65464 88.722 -170.598 -3.13993 92.7871 -29.8661 -7.89178 0.349601 60.2279 -5.526 -3.55473 28.7808 5.55632e-006 5.01685e-006 -178.103 46.1398 82.7908 -47.2787 18.9998 0.784704 31.6334 8.06789 9.28909 28.7808 1.39294e-005 1.78738e-005 -3.11412 6.6701 -91.2695 13.4297 -6.78238 -2.50797 1.77467 -6.88608 -2.20586 -20.8492 -5.71487 -4.43456 -0.836574 -5.71489 -4.43459 136.515 -56.0278 -33.7588 2.01373 23.2644 -6.34149 0.345819 55.046 -7.1217 -8.30884 0.352061 -10.6622 -98.3354 -22.8378 53.6021 -47.6828 6.06216 -37.7114 3.09355 30.0885 -4.15852 17.4717 -6.57756 -40.1934 43.5027 -16.5534 -30.16 -18.6198 -5.94337 42.4509 
-2.35016 93.7542 -85.0005 84.5785 5.27819 87.6265 -170.358 -4.6133 93.255 -26.3774 -3.36118 2.37887 43.9661 -4.62382 -4.5743 28.7808 5.55632e-006 5.01685e-006 -178.541 43.0468 83.5163 -47.0036 20.1833 0.869978 34.5979 6.75103 7.48218 28.7808 1.39294e-005 1.78738e-005 -3.24576 6.18815 -91.0911 14.4289 -6.90135 -1.86066 2.77537 -6.97797 -1.55371 -19.8679 -6.02348 -3.85513 0.144694 -6.02351 -3.85515 137.913 -55.0697 -31.4179 0.661092 23.4773 -4.68525 0.985638 59.1383 -7.68136 -10.8278 0.680312 -13.0022 -97.1097 -21.4128 55.1018 -51.0828 8.40822 -36.2357 3.71185 40.9032 -4.84107 16.8381 -6.83896 -42.7863 39.3184 -16.7974 -31.8818 -17.9328 -6.43964 43.6108 
2.00392 95.1658 -83.1471 84.9396 5.16556 87.0498 -169.765 -5.03353 94.1684 -25.0771 1.75167 3.88745 27.1761 -3.5525 -5.42649 28.7808 5.55632e-006 5.01685e-006 -179.081 39.5164 84.73 -46.491 19.4343 0.824031 36.5193 6.17647 6.65921 28.7808 1.39294e-005 1.78738e-005 -3.27741 5.93324 -90.9777 14.9719 -6.83014 -1.35838 3.3186 -6.88275 -1.05467 -19.3326 -6.11273 -3.35769 0.680103 -6.11274 -3.35772 139.336 -54.8261 -29.4114 0.367221 23.4398 -3.95318 1.65512 62.5643 -8.28483 -12.5948 1.10951 -15.8977 -95.8097 -20.0389 56.8656 -52.3896 13.1104 -27.3355 18.7796 39.6657 -27.4678 8.92981 -3.68164 -39.436 37.2651 -16.752 -31.9079 -18.0036 -7.03605 43.4733 
